<svg xmlns:dc="http://purl.org/dc/elements/1.1/" xmlns:cc="http://creativecommons.org/ns#" xmlns:rdf="http://www.w3.org/1999/02/22-rdf-syntax-ns#" xmlns:svg="http://www.w3.org/2000/svg" xmlns="http://www.w3.org/2000/svg" viewBox="0 0 280 280" fill="none"><metadata><rdf:RDF><cc:Work><dc:format>image/svg+xml</dc:format><dc:type rdf:resource="http://purl.org/dc/dcmitype/StillImage"/><dc:title>Avataaars</dc:title><dc:creator><cc:Agent><dc:title>Pablo Stanley</dc:title></cc:Agent></dc:creator><dc:source>https://avataaars.com/</dc:source><cc:license rdf:resource="https://avataaars.com/"/><dc:contributor><cc:Agent><dc:title>Florian Körner</dc:title></cc:Agent></dc:contributor></cc:Work></rdf:RDF></metadata><mask id="avatarsRadiusMask"><rect width="280" height="280" rx="0" ry="0" x="0" y="0" fill="#fff"/></mask><g mask="url(#avatarsRadiusMask)"><g transform="translate(40, 36)"><path d="M100 0C69.072 0 44 25.072 44 56v6.166c-5.675.952-10 5.888-10 11.834v14c0 6.052 4.48 11.058 10.305 11.881 2.067 19.806 14.458 36.541 31.695 44.73V163h-4c-39.764 0-72 32.236-72 72v9h200v-9c0-39.764-32.236-72-72-72h-4v-18.389c17.237-8.189 29.628-24.924 31.695-44.73C161.52 99.058 166 94.052 166 88V74c0-5.946-4.325-10.882-10-11.834V56c0-30.928-25.072-56-56-56z" fill="#EDB98A"/><path d="M76 144.611v8A55.79 55.79 0 00100 158a55.789 55.789 0 0024-5.389v-8A55.789 55.789 0 01100 150a55.79 55.79 0 01-24-5.389z" fill="#000" fill-opacity=".1"/></g><g transform="translate(8, 170)"><path d="M132 57.052c14.912 0 27-11.193 27-25 0-1.015-.065-2.017-.192-3H160c39.764 0 72 32.235 72 72V110H32v-8.948c0-39.765 32.236-72 72-72h1.192a23.418 23.418 0 00-.192 3c0 13.807 12.088 25 27 25z" fill="#E6E6E6"/><path d="M100.778 29.122c.072-.378.145-.752.222-1.122-2.959.054-6 1-6 1l-.42.662C59.267 34.276 32 64.48 32 101.052V110h74s-10.7-51.555-5.238-80.793l.023-.085h-.007zM158 110s11-53 5-82c2.959.054 6 1 6 1l.419.662C204.733 34.276 232 64.48 232 101.052V110h-74z" fill="#FF5C5C"/><path d="M183.423 85.77l.871-2.24 6.262-4.697a4 4 0 014.856.043L202 84l-18.577 1.77z" fill="#E6E6E6"/><path fill-rule="evenodd" clip-rule="evenodd" d="M101 28c-6 29 5 82 5 82H90L76 74l6-9-6-6 19-30s3.041-.946 6-1zm62 0c6 29-5 82-5 82h16l14-36-6-9 6-6-19-30s-3.041-.946-6-1z" fill="#000" fill-opacity=".15"/><path d="M108 21.539c-6.772 4.597-11 11.117-11 18.349 0 7.4 4.428 14.057 11.48 18.669l5.941-4.68 4.579.33-1-3.15.078-.062C111.978 47.853 108 42.7 108 36.877V21.539zm48 15.338c0 5.823-3.978 10.976-10.078 14.118l.078.062-1 3.15 4.579-.33 5.941 4.68c7.052-4.612 11.48-11.268 11.48-18.67 0-7.23-4.228-13.751-11-18.348v15.338z" fill="#F2F2F2"/></g><g transform="translate(86, 134)"><rect x="42" y="18" width="24" height="6" rx="3" fill="#000" fill-opacity=".7"/></g><g transform="translate(112, 122)"><path fill-rule="evenodd" clip-rule="evenodd" d="M16 8c0 4.418 5.373 8 12 8s12-3.582 12-8" fill="#000" fill-opacity=".16"/></g><g transform="translate(84, 90)"><path fill-rule="evenodd" clip-rule="evenodd" d="M16.16 22.447C18.007 18.648 22.164 16 26.998 16c4.816 0 8.961 2.63 10.817 6.407.552 1.122-.233 2.04-1.024 1.36-2.451-2.107-5.932-3.423-9.793-3.423-3.74 0-7.124 1.235-9.56 3.228-.891.728-1.818-.014-1.278-1.125zm58 0C76.007 18.648 80.164 16 84.998 16c4.816 0 8.961 2.63 10.817 6.407.552 1.122-.233 2.04-1.024 1.36-2.451-2.107-5.932-3.423-9.793-3.423-3.74 0-7.124 1.235-9.56 3.228-.891.728-1.818-.014-1.278-1.125z" fill="#000" fill-opacity=".6"/></g><g transform="translate(84, 82)"><path fill-rule="evenodd" clip-rule="evenodd" d="M26.547 6.148c-5.807.269-15.195 4.488-14.953 10.344.008.192.29.276.427.129 2.755-2.96 22.316-5.95 29.205-4.365.63.145 1.11-.477.71-.927-3.422-3.848-10.186-5.426-15.389-5.18zm59.906 0c5.807.269 15.195 4.488 14.953 10.344-.008.192-.29.276-.427.129-2.755-2.96-22.316-5.95-29.205-4.365-.63.145-1.11-.477-.71-.927 3.422-3.848 10.186-5.426 15.389-5.18z" fill="#000" fill-opacity=".6"/></g><g transform="translate(56, 72)"><path d="M83.998 66.938c-2.5-3.336-12.267-4.749-19.277-3.474-9.653 1.757-13.744 12.303-12.506 14.215.772 1.191 2.482.793 4.26.379.814-.19 1.642-.383 2.401-.428 1.486-.089 3.34.218 5.446.567 4.981.824 11.37 1.88 17.628-1.508a6.041 6.041 0 002.048-1.85 6.041 6.041 0 002.048 1.85c6.257 3.389 12.647 2.332 17.628 1.508 2.106-.349 3.96-.656 5.446-.567.759.045 1.587.238 2.401.428 1.778.414 3.488.812 4.26-.379 1.238-1.912-2.853-12.458-12.507-14.215-7.009-1.275-16.775.138-19.276 3.474z" fill="#ECDCBF"/></g><g transform="translate(7, 0)"><path fill-rule="evenodd" clip-rule="evenodd" d="M88.183 37.856c5.141-3.832 11.219-7.116 17.559-8.378 6.447-1.282 10.359-1.593 16.705-.073 1.633.392 2.184.78 3.621-.148 1.211-.783 9.662-9.49 35.42-4.657 26.035 4.885 33.769 44.075 43.427 45.566 3.48.537 7.782-.384 7.916-2.527 3.964 6.034 5.008 14.007 3.327 21.074-1.446 6.086-4.496 11.804-9.989 15.137-4.725 2.867-11.259 4.116-16.721 3.587-2.485-.24-4.745-.763-7.031-1.766-2.759-1.209-4.957-3.391-7.665-4.543a53.896 53.896 0 009.176 6.418c1.64.907 3.304 1.532 5.113 2.024 1.236.336 3.762 1.481 4.956 1.182-7.807 1.396-15.16.18-22.319-3.163-3.231-1.508-6.339-3.332-9.191-5.476-2.833-2.13-6.094-4.307-8.311-7.11.931 1.204-.697-.586-.912-.805a67.764 67.764 0 01-1.787-1.895 74.075 74.075 0 01-2.931-3.391c-1.993-2.486-3.851-5.082-5.507-7.803-1.677-2.756-8.358-13.873-10.375-16.49 1.905 5.708 3.98 11.418 6.407 16.925-4.713-1.47-9.283-5.544-12.295-9.34-3.392-4.276-5.4-9.268-6.108-14.666-3.825 10.416-12.785 18.63-22.032 24.295 2.003-3.73 5.056-6.885 7.052-10.678-9.19 9.329-24.568 13.893-28.595 27.574-1.032-4.758-4.353-8.58-5.347-13.433-1.105-5.389-1.897-11.11-1.722-16.616.398-12.242 8.632-23.723 18.16-30.824z" fill="#D6B370"/></g></g></svg>